<svg width="24" height="24" viewBox="0 0 24 24" fill="none" xmlns="http://www.w3.org/2000/svg">
    <path fill-rule="evenodd" clip-rule="evenodd" d="M13.5 3.75C13.5 3.82227 13.4956 3.89073 13.4871 3.95553C16.1239 4.61156 17.5584 6.70483 18.1679 8.2825C18.4569 9.03052 18.5 9.80962 18.5 10.4902V16.6893L20.2804 18.4697C20.4949 18.6842 20.559 19.0068 20.4429 19.287C20.3268 19.5673 20.0534 19.75 19.75 19.75H3.75002C3.44668 19.75 3.1732 19.5673 3.05711 19.287C2.94103 19.0068 3.00519 18.6842 3.21969 18.4697L5.00002 16.6893V10.4902C5.00002 9.80962 5.04312 9.03052 5.33211 8.2825C5.94161 6.70484 7.37618 4.61158 10.0129 3.95554C10.0044 3.89074 10 3.82228 10 3.75C10 2.7835 10.7835 2 11.75 2C12.7165 2 13.5 2.7835 13.5 3.75ZM11.75 5.25C8.84534 5.25 7.341 7.24493 6.73132 8.82306C6.54568 9.30358 6.50002 9.85373 6.50002 10.4902V17C6.50002 17.1989 6.421 17.3897 6.28035 17.5303L5.56068 18.25H17.9394L17.2197 17.5303C17.079 17.3897 17 17.1989 17 17V10.4902C17 9.85373 16.9544 9.30358 16.7687 8.82306C16.159 7.24493 14.6547 5.25 11.75 5.25ZM10 20.75C10 20.661 10.0066 20.5777 10.0195 20.5H13.4805C13.4934 20.5777 13.5 20.661 13.5 20.75C13.5 21.7165 12.7165 22.5 11.75 22.5C10.7835 22.5 10 21.7165 10 20.75Z" fill="#111111"/>
</svg>
