<svg width="24" height="24" viewBox="0 0 24 24" fill="none" xmlns="http://www.w3.org/2000/svg">
    <path d="M12 9.4C11.2767 9.4 10.583 9.67393 10.0715 10.1615C9.56006 10.6491 9.27273 11.3104 9.27273 12C9.27273 12.6896 9.56006 13.3509 10.0715 13.8385C10.583 14.3261 11.2767 14.6 12 14.6C12.7233 14.6 13.417 14.3261 13.9285 13.8385C14.4399 13.3509 14.7273 12.6896 14.7273 12C14.7273 11.3104 14.4399 10.6491 13.9285 10.1615C13.417 9.67393 12.7233 9.4 12 9.4ZM12 16.3333C10.7945 16.3333 9.63832 15.8768 8.78588 15.0641C7.93344 14.2515 7.45455 13.1493 7.45455 12C7.45455 10.8507 7.93344 9.74853 8.78588 8.93587C9.63832 8.12321 10.7945 7.66667 12 7.66667C13.2055 7.66667 14.3617 8.12321 15.2141 8.93587C16.0666 9.74853 16.5455 10.8507 16.5455 12C16.5455 13.1493 16.0666 14.2515 15.2141 15.0641C14.3617 15.8768 13.2055 16.3333 12 16.3333ZM12 5.5C7.45455 5.5 3.57273 8.19533 2 12C3.57273 15.8047 7.45455 18.5 12 18.5C16.5455 18.5 20.4273 15.8047 22 12C20.4273 8.19533 16.5455 5.5 12 5.5Z" fill="#616161"/>
</svg>
