<svg width="24" height="24" viewBox="0 0 24 24" fill="none" xmlns="http://www.w3.org/2000/svg">
    <g clip-path="url(#clip0_438_1461)">
        <path d="M20.2501 21C20.1516 21.0001 20.054 20.9808 19.963 20.9431C19.872 20.9053 19.7894 20.85 19.7199 20.7801L3.21994 4.28013C3.08522 4.13833 3.01123 3.94952 3.01373 3.75395C3.01624 3.55838 3.09504 3.37152 3.23334 3.23322C3.37164 3.09492 3.5585 3.01612 3.75407 3.01361C3.94964 3.01111 4.13845 3.0851 4.28025 3.21982L20.7803 19.7198C20.8851 19.8247 20.9564 19.9583 20.9854 20.1038C21.0143 20.2492 20.9994 20.3999 20.9427 20.5369C20.8859 20.6739 20.7899 20.791 20.6666 20.8735C20.5433 20.9559 20.3984 20.9999 20.2501 21ZM11.6251 14.8054L9.19744 12.3778C9.18353 12.364 9.16565 12.3549 9.1463 12.3518C9.12696 12.3487 9.10713 12.3517 9.0896 12.3604C9.07206 12.3692 9.05771 12.3832 9.04855 12.4005C9.03939 12.4178 9.03589 12.4376 9.03853 12.457C9.13654 13.0868 9.43227 13.6692 9.88299 14.1199C10.3337 14.5706 10.916 14.8663 11.5459 14.9643C11.5653 14.967 11.585 14.9635 11.6024 14.9543C11.6197 14.9452 11.6337 14.9308 11.6424 14.9133C11.6512 14.8957 11.6542 14.8759 11.6511 14.8566C11.648 14.8372 11.6389 14.8194 11.6251 14.8054ZM12.3751 9.1945L14.8065 11.625C14.8204 11.639 14.8383 11.6482 14.8577 11.6514C14.8772 11.6547 14.8971 11.6517 14.9148 11.6429C14.9324 11.6341 14.9469 11.62 14.956 11.6026C14.9652 11.5851 14.9686 11.5653 14.9659 11.5458C14.8681 10.9151 14.5722 10.3319 14.1209 9.88059C13.6696 9.4293 13.0864 9.13336 12.4557 9.0356C12.4362 9.03258 12.4162 9.03582 12.3986 9.04484C12.381 9.05386 12.3668 9.06821 12.3578 9.08583C12.3489 9.10346 12.3457 9.12345 12.3488 9.14297C12.3519 9.16249 12.3611 9.18052 12.3751 9.1945Z" fill="#616161"/>
        <path d="M22.7794 12.7595C22.9242 12.5322 23.0008 12.268 23 11.9985C22.9992 11.7289 22.9211 11.4653 22.775 11.2387C21.6175 9.4485 20.1157 7.92775 18.4323 6.84056C16.5674 5.63656 14.5114 5 12.485 5C11.4168 5.00147 10.3558 5.17565 9.34321 5.51581C9.31487 5.52524 9.28941 5.54177 9.26926 5.56382C9.24911 5.58587 9.23494 5.61271 9.2281 5.64179C9.22126 5.67086 9.22198 5.70121 9.23018 5.72993C9.23838 5.75865 9.2538 5.7848 9.27496 5.80587L11.3415 7.87263C11.363 7.89413 11.3897 7.90968 11.419 7.91774C11.4483 7.92579 11.4792 7.92608 11.5086 7.91856C12.2091 7.74784 12.9418 7.76035 13.636 7.95489C14.3303 8.14942 14.9627 8.51943 15.4725 9.02929C15.9824 9.53915 16.3523 10.1717 16.5469 10.866C16.7414 11.5603 16.7539 12.293 16.5832 12.9936C16.5757 13.0229 16.5761 13.0538 16.5841 13.083C16.5922 13.1122 16.6077 13.1388 16.6291 13.1602L19.6017 16.1352C19.6326 16.1662 19.674 16.1845 19.7177 16.1864C19.7615 16.1884 19.8043 16.1739 19.8379 16.1458C20.9821 15.1704 21.9736 14.0289 22.7794 12.7595ZM12.499 16.2C11.8633 16.2 11.2359 16.0557 10.664 15.7779C10.0921 15.5002 9.59081 15.0962 9.1978 14.5964C8.80479 14.0967 8.53036 13.5142 8.3952 12.8929C8.26004 12.2717 8.26768 11.6278 8.41754 11.0099C8.42497 10.9806 8.42465 10.9497 8.4166 10.9205C8.40855 10.8913 8.39304 10.8647 8.37161 10.8432L5.44762 7.91769C5.41662 7.88664 5.37508 7.86838 5.33125 7.86652C5.28742 7.86465 5.24448 7.87933 5.21096 7.90763C4.14399 8.81806 3.15489 9.92581 2.25066 11.2204C2.09238 11.4476 2.00521 11.7167 2.00023 11.9936C1.99524 12.2704 2.07267 12.5425 2.22266 12.7752C3.378 14.5834 4.86449 16.1064 6.52203 17.1787C8.38955 18.3875 10.3957 19 12.485 19C13.5641 18.9971 14.6361 18.8266 15.6628 18.4947C15.6914 18.4856 15.7171 18.4692 15.7376 18.4472C15.758 18.4253 15.7725 18.3984 15.7796 18.3692C15.7866 18.34 15.7861 18.3095 15.778 18.2806C15.7699 18.2517 15.7544 18.2254 15.7332 18.2042L13.6566 16.1278C13.6351 16.1064 13.6085 16.0909 13.5793 16.0828C13.5501 16.0748 13.5193 16.0744 13.4899 16.0819C13.1655 16.1605 12.8329 16.2001 12.499 16.2Z" fill="#616161"/>
    </g>
    <defs>
        <clipPath id="clip0_438_1461">
            <rect width="24" height="24" fill="white"/>
        </clipPath>
    </defs>
</svg>
