<svg width="24" height="24" viewBox="0 0 24 24" fill="none" xmlns="http://www.w3.org/2000/svg">
    <path d="M20.8868 3.1184C20.1659 2.40209 19.1905 2 18.1737 2C17.157 2 16.1816 2.40209 15.4606 3.1184L4.88421 13.7001L2.18646 19.2436C2.0478 19.5355 1.98476 19.8576 2.00311 20.1802C2.02147 20.5028 2.12064 20.8157 2.29152 21.0901C2.46241 21.3644 2.69953 21.5915 2.98113 21.7505C3.26273 21.9095 3.57979 21.9953 3.90321 22C4.19588 21.9999 4.48452 21.9318 4.74626 21.8009L10.2951 19.1057L19.4919 9.91762L20.7642 8.66191L20.8561 8.57003C21.5828 7.85062 21.9942 6.8726 21.9999 5.85055C22.0057 4.8285 21.6054 3.84592 20.8868 3.1184ZM19.5226 4.48131C19.701 4.65912 19.8426 4.87035 19.9392 5.10291C20.0358 5.33547 20.0855 5.58478 20.0855 5.83656C20.0855 6.08834 20.0358 6.33765 19.9392 6.57021C19.8426 6.80276 19.701 7.01399 19.5226 7.19181L16.8095 4.48131C17.1579 4.12761 17.6311 3.92423 18.1277 3.91471C18.3869 3.90741 18.6447 3.95401 18.8848 4.05155C19.1249 4.14909 19.3421 4.29544 19.5226 4.48131ZM3.91854 20.0705L6.30973 15.063L8.93085 17.6816L3.91854 20.0705ZM10.2951 16.3952L7.5973 13.7001L15.4606 5.87484L18.1277 8.5394L10.2951 16.3952Z" fill="#111111"/>
</svg>
